<svg width="121" height="60" viewBox="0 0 121 60" fill="none" xmlns="http://www.w3.org/2000/svg">
<path d="M42.4815 45.907H41.1902V40.7839H42.4815V45.907Z" fill="#3C3730"/>
<path d="M43.7492 45.907V40.7839H45.1628L47.2916 43.7218C47.4398 43.9382 47.5574 44.1452 47.6374 44.3428H47.6515V40.7863H48.8346V45.9094H47.4915L45.2828 42.9362C45.104 42.6586 44.9911 42.4587 44.9441 42.3364H44.9229C44.9276 42.4799 44.93 42.708 44.93 43.0209V45.907H43.7468H43.7492Z" fill="#3C3730"/>
<path d="M54.1459 45.907V44.1099L52.0759 40.7839H53.4967L54.6586 42.7692C54.7316 42.8986 54.7762 43.0115 54.7951 43.1079H54.8092C54.828 43.0115 54.875 42.8986 54.9456 42.7692L56.1358 40.7839H57.5212L55.4443 44.1099V45.907H54.1459Z" fill="#3C3730"/>
<path d="M62.5456 45.3143C62.0163 45.8059 61.3083 46.0506 60.4239 46.0506C59.5395 46.0506 58.8315 45.8059 58.3022 45.3143C57.773 44.8251 57.5095 44.1665 57.5095 43.3456C57.5095 42.5246 57.7753 41.866 58.3022 41.3744C58.8315 40.8852 59.5395 40.6382 60.4239 40.6382C61.3083 40.6382 62.0163 40.8828 62.5456 41.3744C63.0748 41.866 63.3382 42.5223 63.3382 43.3456C63.3382 44.1688 63.0748 44.8251 62.5456 45.3143ZM59.2807 44.5922C59.563 44.9004 59.944 45.0556 60.4239 45.0556C60.9037 45.0556 61.2871 44.9027 61.567 44.5922C61.8493 44.2841 61.9881 43.8677 61.9881 43.3456C61.9881 42.8234 61.847 42.4047 61.567 42.0965C61.2871 41.7884 60.9037 41.6355 60.4239 41.6355C59.944 41.6355 59.563 41.7884 59.2807 42.0965C58.9985 42.4047 58.8573 42.821 58.8573 43.3456C58.8573 43.8701 58.9985 44.2864 59.2807 44.5922Z" fill="#3C3730"/>
<path d="M64.1662 40.7839H65.4646V43.8136C65.4646 44.1781 65.5728 44.4722 65.7892 44.6909C66.0056 44.9097 66.3067 45.0179 66.6901 45.0179C67.0735 45.0179 67.3746 44.9097 67.591 44.6909C67.8074 44.4722 67.9156 44.1805 67.9156 43.8136V40.7839H69.214V43.9006C69.214 44.5592 68.9905 45.0837 68.5459 45.4695C68.1014 45.8553 67.4828 46.0505 66.6877 46.0505C65.8927 46.0505 65.2811 45.8553 64.8342 45.4671C64.3873 45.0767 64.1638 44.5545 64.1638 43.8935V40.7839H64.1662Z" fill="#3C3730"/>
<path d="M73.8738 45.907L72.7918 43.9947H71.6956V45.907H70.4043V40.7839H73.1893C73.862 40.7839 74.3583 40.9321 74.6759 41.2238C74.9934 41.5178 75.151 41.8989 75.151 42.3717C75.151 42.6986 75.0616 42.9926 74.8852 43.2561C74.7064 43.5172 74.4383 43.7077 74.0761 43.823L75.3039 45.907H73.8738ZM71.6933 41.6778V43.1291H72.9047C73.2128 43.1291 73.4386 43.0609 73.5798 42.9268C73.7209 42.7927 73.7938 42.6116 73.7938 42.3858C73.7938 42.16 73.7209 41.9977 73.5774 41.8706C73.4339 41.7436 73.2105 41.6801 72.907 41.6801H71.6956L71.6933 41.6778Z" fill="#3C3730"/>
<path d="M83.4191 45.3143C82.8899 45.8059 82.1818 46.0506 81.2974 46.0506C80.413 46.0506 79.705 45.8059 79.1757 45.3143C78.6465 44.8251 78.3831 44.1665 78.3831 43.3456C78.3831 42.5246 78.6489 41.866 79.1757 41.3744C79.705 40.8852 80.413 40.6382 81.2974 40.6382C82.1818 40.6382 82.8899 40.8828 83.4191 41.3744C83.9483 41.866 84.2118 42.5223 84.2118 43.3456C84.2118 44.1688 83.9483 44.8251 83.4191 45.3143ZM80.1543 44.5922C80.4365 44.9004 80.8176 45.0556 81.2974 45.0556C81.7773 45.0556 82.1607 44.9027 82.4406 44.5922C82.7228 44.2841 82.8616 43.8677 82.8616 43.3456C82.8616 42.8234 82.7205 42.4047 82.4406 42.0965C82.1583 41.7884 81.7773 41.6355 81.2974 41.6355C80.8176 41.6355 80.4365 41.7884 80.1543 42.0965C79.872 42.4047 79.7309 42.821 79.7309 43.3456C79.7309 43.8701 79.872 44.2864 80.1543 44.5922Z" fill="#3C3730"/>
<path d="M85.9829 45.907L84.5339 40.7839H85.8465L86.6697 44.1099C86.7027 44.2675 86.7262 44.4204 86.7356 44.5639H86.7638C86.7685 44.4534 86.7967 44.3028 86.8508 44.1099L87.7964 40.7839H89.116L90.0616 44.1099C90.1133 44.3028 90.1439 44.4534 90.1486 44.5639H90.1768C90.1815 44.4722 90.2027 44.3216 90.2427 44.1099L91.066 40.7839H92.3855L90.9272 45.907H89.4618L88.5374 42.494C88.4997 42.3552 88.4786 42.2188 88.4739 42.0823H88.4386C88.4292 42.2164 88.408 42.3552 88.3727 42.494L87.4483 45.907H85.9829Z" fill="#3C3730"/>
<path d="M93.1405 45.907V40.7839H94.5542L96.6829 43.7218C96.8311 43.9382 96.9487 44.1452 97.0287 44.3428H97.0428V40.7863H98.226V45.9094H96.8829L94.6742 42.9362C94.4954 42.6586 94.3825 42.4587 94.3355 42.3364H94.3143C94.319 42.4799 94.3213 42.708 94.3213 43.0209V45.907H93.1382H93.1405Z" fill="#3C3730"/>
<path d="M103.09 45.907L101.641 40.7839H102.954L103.777 44.1099C103.81 44.2675 103.834 44.4204 103.843 44.5639H103.871C103.876 44.4534 103.904 44.3028 103.958 44.1099L104.904 40.7839H106.223L107.169 44.1099C107.221 44.3028 107.251 44.4534 107.256 44.5639H107.284C107.289 44.4722 107.31 44.3216 107.35 44.1099L108.173 40.7839H109.493L108.035 45.907H106.569L105.645 42.494C105.607 42.3552 105.586 42.2188 105.581 42.0823H105.546C105.537 42.2164 105.515 42.3552 105.48 42.494L104.556 45.907H103.09Z" fill="#3C3730"/>
<path d="M113.957 45.907L113.532 44.7897H111.187L110.754 45.907H109.411L111.589 40.7839H113.125L115.296 45.907H113.953H113.957ZM111.525 43.9076H113.193L112.701 42.6233C112.527 42.2235 112.414 41.9059 112.363 41.6707H112.349C112.301 41.9059 112.191 42.2235 112.017 42.6233L111.525 43.9076Z" fill="#3C3730"/>
<path d="M116.874 45.907V44.1099L114.804 40.7839H116.225L117.387 42.7692C117.46 42.8986 117.505 43.0115 117.523 43.1079H117.537C117.556 43.0115 117.603 42.8986 117.674 42.7692L118.864 40.7839H120.25L118.173 44.1099V45.907H116.874Z" fill="#3C3730"/>
<path d="M38.4922 19.5813C36.4152 23.279 34.1689 26.9554 31.5979 30.3308C30.8876 31.2623 30.1349 32.1797 29.2928 32.9959C29.2928 32.9959 28.4789 33.7721 28.3213 33.7415C28.2625 33.7297 28.2437 33.6027 28.2413 33.4498V33.4451C28.2413 33.1864 28.286 32.8547 28.286 32.8547C28.2931 32.8218 28.3025 32.7818 28.3119 32.7348C28.3778 32.4172 28.4483 32.102 28.5354 31.7915C28.7188 31.1188 28.947 30.4579 29.194 29.8063C29.7232 28.4115 30.3818 26.9954 31.1134 25.6265C32.2307 24.6691 31.859 22.3381 29.9678 22.3381C29.608 22.3381 29.3022 22.4228 29.0505 22.5686C29.0505 22.5686 29.0481 22.5686 29.0458 22.5686C26.4772 23.8129 24.3297 24.5774 24.3297 24.5774L24.4002 24.5703C23.8051 24.7726 23.2077 24.9702 22.6031 25.1584C23.9674 19.3673 25.4752 13.6091 27.1099 7.89565C27.3546 7.0371 27.6015 6.1809 27.8603 5.32706C28.3519 3.7017 26.0467 2.14219 24.8754 3.56292C17.3695 12.6659 9.92719 21.9171 3.09878 31.5375C2.14144 32.8853 1.18645 34.2402 0.29262 35.6327C-0.958745 37.5803 2.13203 39.4009 3.37634 37.4627C6.00844 33.3628 8.97455 29.4558 11.9454 25.5982C15.2596 21.2937 18.6162 17.0198 22.008 12.7764C20.8037 17.2621 19.6982 21.7759 18.6703 26.3015C17.4683 26.6261 16.2687 26.9343 15.0785 27.2283C13.5707 27.5576 12.8957 27.6211 12.0277 27.9669C10.0965 28.7384 10.7034 31.7139 12.8604 31.1988C12.8604 31.1988 13.5213 31.0765 14.5939 30.7825C14.6198 30.7754 14.6433 30.7683 14.6692 30.7613C15.0456 30.6696 15.4219 30.5755 15.8006 30.4814C17.3272 30.1803 17.6071 30.6672 17.1249 33.3769C16.4098 36.8111 15.7465 40.2571 15.1467 43.7148C14.7562 45.9705 18.2045 46.9632 18.5974 44.691C19.5147 39.3985 20.5685 34.1249 21.7446 28.8795C23.3535 28.4044 24.9506 27.894 26.5148 27.3341C26.1291 28.2421 25.781 29.1641 25.4822 30.0933C25.3834 30.4014 25.2917 30.7331 25.2094 31.0788C24.8236 32.4854 24.6237 34.0214 25.1364 35.2516C25.1364 35.254 25.1365 35.2563 25.1388 35.261C25.2917 35.6633 25.3952 35.8138 25.6469 36.1407C25.6563 36.1525 25.6657 36.1666 25.6751 36.1784C25.6892 36.1948 25.701 36.2113 25.7151 36.2301C25.7645 36.2913 25.7927 36.3242 25.8068 36.3336C26.1714 36.7311 26.6677 37.0181 27.324 37.1498C27.5169 37.1945 27.7121 37.218 27.905 37.2227C28.032 37.2298 28.1614 37.2322 28.2978 37.2275C28.5024 37.2228 28.6859 37.1875 28.8529 37.1287C29.0552 37.0675 29.488 36.8981 29.8785 36.6653C29.8785 36.6653 29.8785 36.6653 29.8832 36.6629C30.8076 36.1549 31.6544 35.381 32.3083 34.6706C32.3953 34.5765 32.4776 34.4777 32.5623 34.3813C32.5694 34.3766 32.5764 34.3719 32.5835 34.3648C32.6564 34.2825 32.6517 34.299 32.6258 34.3648C32.6094 34.4095 32.5929 34.4519 32.5764 34.4966C31.2968 37.8837 30.563 39.7678 29.5986 43.2585C29.4786 43.6936 29.3633 44.1029 29.2551 44.4887C28.3919 47.1655 26.743 52.0227 26.0326 54.676C25.7151 55.8591 25.2141 57.334 25.5763 58.5595C26.0538 60.1684 28.2366 60.5047 29.241 59.1851C29.7867 58.4654 29.7773 57.1811 29.9302 56.3319C30.7441 51.8016 31.4827 48.812 32.6846 44.3687C34.0583 39.2997 35.4696 36.136 37.3749 31.2482C38.7321 27.7646 40.1175 24.2928 41.5453 20.8397C42.2769 19.0732 39.3954 17.9677 38.4922 19.5766V19.5813Z" fill="#3C3730"/>
<path d="M99.5361 23.359C98.8046 22.4981 97.5932 22.6063 96.6076 22.8251C94.0249 23.399 91.4446 23.9965 88.8783 24.641C86.839 25.1538 84.7926 25.636 82.7391 26.0946C82.438 26.1511 77.4302 27.1461 77.2091 27.1837C77.1997 27.1837 77.195 27.1861 77.1856 27.1884C76.9927 27.2143 76.7646 27.2307 76.6234 27.2002C76.4141 27.1555 76.28 26.9414 76.1247 26.5839C76.1083 26.5392 76.0942 26.5039 76.0871 26.4898C76.0612 26.4333 76.0377 26.3722 76.0118 26.3134C75.993 26.2663 75.9742 26.2193 75.953 26.1676C75.5626 25.0902 75.532 23.6719 75.5932 22.3594C75.6167 22.0771 75.659 21.8231 75.6755 21.5902C75.6755 21.5784 75.6755 21.5714 75.6755 21.562C75.692 21.3338 75.6967 21.1103 75.6872 20.8892C75.692 20.7363 75.6778 20.5929 75.6496 20.4635C75.5979 20.0801 75.4991 19.7108 75.3368 19.3744C75.1909 19.0757 74.9981 18.864 74.7793 18.7252C74.7793 18.7252 74.7793 18.7252 74.777 18.7252C74.777 18.7252 74.7722 18.7252 74.7699 18.7229C74.6523 18.6499 74.5276 18.6006 74.3982 18.5676C74.2806 18.53 74.1607 18.4994 74.036 18.4759C73.9984 18.4665 73.9607 18.4618 73.9231 18.4547C73.9019 18.45 73.8808 18.4477 73.8596 18.443C73.5797 18.3959 73.2927 18.3818 73.0246 18.3795C73.001 18.3795 72.9752 18.3795 72.9516 18.3795C72.9516 18.3795 72.9493 18.3795 72.9469 18.3795C72.834 18.3795 72.7235 18.3818 72.6223 18.3842C71.3098 18.4289 70.0326 18.784 68.8706 19.3956C67.17 20.2871 65.7728 21.6725 64.886 23.3332C64.1686 24.4034 63.4182 25.3067 62.5855 26.3628C61.8493 27.2966 61.059 28.2069 60.1746 29.0019C60.1463 29.0278 60.1158 29.056 60.0852 29.0843C60.0452 29.1149 60.0076 29.1478 59.9746 29.176C59.6524 29.463 58.8903 30.1051 58.5751 29.8722C58.2599 29.6394 58.0246 28.5644 57.9917 28.1152C57.9917 28.0822 57.987 28.0493 57.9823 28.014C57.9823 27.9717 57.9823 27.934 57.9823 27.8846C57.9541 27.2307 57.9823 26.5745 58.0552 25.9253C61.146 22.103 64.051 18.1725 65.2906 16.3966C67.6333 13.0353 70.249 9.07184 70.957 4.96021C71.2769 3.10198 70.9688 0.615709 68.7859 0.0700012C67.4663 -0.259305 66.2103 0.634532 65.2929 1.47191C63.6182 3.00319 62.3691 5.06605 61.2848 7.03719C59.1702 10.8924 57.4578 15.0582 56.1147 19.2403C55.5619 20.9622 55.0256 22.7969 54.741 24.648C54.1247 25.4078 53.3532 26.3463 52.3418 27.5718C51.328 28.7973 50.3118 29.8417 49.1522 30.9331C48.8064 31.2577 48.4324 31.5235 48.0302 31.7775C47.7197 31.9351 47.5245 32.008 47.3763 31.9328C47.2493 31.8693 47.1763 31.6693 47.1199 31.3212C47.1105 31.253 47.0987 31.1824 47.0893 31.1142C47.0376 30.7214 47.0258 30.3192 47.0023 29.924C46.9599 29.2536 46.9388 28.5832 46.9552 27.9129C46.96 27.7647 46.9717 27.6165 46.9788 27.4683C47.9196 26.8991 48.7641 26.0147 49.4674 25.2361C52.1724 22.2441 54.0518 18.6076 55.6654 14.9429C56.698 12.6001 60.3792 5.48475 56.03 4.09225C54.6022 3.63593 53.2474 4.50388 52.3065 5.51062C50.0154 7.95689 48.5383 11.2782 47.1834 14.2913C45.5181 17.9913 44.1844 21.8466 43.7233 25.8312C43.2505 26.1323 42.7589 26.4004 42.2462 26.6239C40.3973 27.4307 41.7428 30.171 43.5657 29.5429C43.5799 30.0087 43.6034 30.4744 43.6481 30.9425C43.808 32.6831 44.2643 34.6472 46.139 35.2705C47.7526 35.8092 49.258 35.2282 50.4882 34.205C51.6761 33.2194 53.165 31.6646 54.7481 29.8628C54.7857 29.8158 54.8186 29.7735 54.828 29.8158C54.828 29.8205 54.8327 29.8299 54.8351 29.8393C55.1456 31.046 55.7454 32.168 56.8509 32.8384C58.4081 33.7816 60.1534 33.2947 61.5459 32.2785C62.5597 31.5376 63.4112 30.6508 64.1827 29.6911C64.1827 29.6911 64.1827 29.6911 64.185 29.6888C64.1874 29.6841 64.1897 29.6817 64.1945 29.677C64.2062 29.6629 64.218 29.6488 64.2274 29.6347C64.2533 29.6017 64.265 29.5994 64.2838 29.6464C64.2838 29.6464 64.2838 29.6464 64.2862 29.6488C64.7543 30.8037 65.6269 31.714 67.0312 31.8246C69.3434 32.0057 71.4862 30.0228 72.9564 28.014C72.9564 28.014 72.9564 28.014 72.9564 28.0117C72.9564 28.0093 72.9611 28.007 72.9611 28.0046C72.9681 27.9952 72.9752 27.9999 73.0034 28.0658C73.0128 28.0869 73.0222 28.1105 73.034 28.1316C73.0387 28.141 73.0434 28.1504 73.0481 28.1622C73.0481 28.1622 73.0481 28.1622 73.0481 28.1599C73.7749 29.7382 75.0263 30.839 77.1291 30.6767C77.1291 30.6767 77.4373 30.6532 77.7407 30.585C77.7407 30.585 77.7407 30.585 77.7431 30.585C83.5553 29.43 89.29 27.9623 95.0599 26.6333C95.9114 26.4733 96.7652 26.3416 97.6285 26.2899C98.4235 26.2428 99.4044 26.2922 99.8043 25.4054C100.141 24.6574 100.054 23.9847 99.5267 23.3637L99.5361 23.359ZM62.7855 11.0806C63.1971 10.2056 63.6417 9.3447 64.1262 8.50496C65.8551 5.4236 67.591 3.64769 67.7086 3.81234C67.9109 3.87115 67.878 5.34831 65.9798 8.96128C65.7563 9.41054 65.5211 9.85511 65.2788 10.2903C64.8342 11.083 64.3591 11.8686 63.8651 12.6495C60.732 17.829 59.7418 18.8946 59.57 18.8946C59.3325 19.0287 61.1201 14.4701 62.7855 11.0806ZM54.5128 8.20152C54.7481 8.20152 54.5269 9.65989 52.8757 13.4845C50.961 17.9231 47.8397 22.5852 47.6397 22.4182C47.5527 22.3452 48.1384 20.0989 49.1099 17.7726C49.7144 16.2013 50.4459 14.6606 51.2009 13.1364C52.5323 10.4455 54.1953 8.19917 54.5128 8.19917V8.20152ZM72.2813 21.8395C72.1307 22.7804 71.6274 24.0129 71.0628 24.935C70.3007 26.184 69.2187 27.5318 67.9532 28.2986C67.511 28.595 67.297 28.6044 67.1864 28.0775C67.0994 27.593 67.1135 26.8003 67.2523 26.1934C67.5181 25.0385 68.132 24.1376 68.9859 23.3238C69.875 22.477 71.004 21.8419 72.2342 21.6819C72.253 21.6796 72.2766 21.6772 72.3024 21.6749C72.2954 21.729 72.2907 21.7854 72.2836 21.8395H72.2813Z" fill="#3C3730"/>
</svg>