<?xml version="1.0" encoding="UTF-8"?>
<!-- Generator: Adobe Illustrator 22.1.0, SVG Export Plug-In . SVG Version: 6.00 Build 0)  -->
<svg version="1.1" id="Layer_1" xmlns="http://www.w3.org/2000/svg" xmlns:xlink="http://www.w3.org/1999/xlink" x="0px" y="0px" viewBox="0 0 214.3 24.3" style="enable-background:new 0 0 214.3 24.3;" xml:space="preserve">
<style type="text/css">
	.st0{fill:#373836;}
	.st1{fill:#373836;stroke:#E6E7E8;stroke-width:0.75;stroke-miterlimit:10;}
	.st2{fill:#FFFFFF;}
</style>
<g>
</g>
<g id="XMLID_88_">
	<g id="XMLID_89_">
		<g id="XMLID_90_">
			<g id="XMLID_91_">
				<g id="XMLID_103_">
					<g>
						<path class="st0" d="M94.7,8c0-4.3-3.8-7.2-8.3-7.2l-19.1,0l0,23.7l7.2,0l0-8.9l5.1,0l6.8,8.9l8.2,0l-7.3-9.3        C91.4,15.2,94.7,12,94.7,8z M83.4,11.7l-8.8,0V4.5l9,0c2.1,0,3.9,1.7,3.8,3.8C87.3,10.3,85.5,11.9,83.4,11.7z"/>
					</g>
				</g>
				<g id="XMLID_97_">
					<g>
						<path class="st0" d="M126.4,8c0-4.3-3.8-7.2-8.3-7.2H99l0,23.7l7.2,0l0-8.9l5.1,0l6.8,8.9l8.2,0l-7.3-9.3        C123,15.2,126.4,12,126.4,8z M115.1,11.7l-8.8,0V4.5l9,0c2.1,0,3.9,1.7,3.8,3.8C119,10.3,117.2,11.9,115.1,11.7z"/>
					</g>
				</g>
				<polygon id="XMLID_96_" class="st0" points="47,13.9 60.9,13.9 60.9,10.4 47,10.4 47,4.4 63.2,4.4 63.2,0.8 39.7,0.8 39.7,24.4       63.3,24.4 63.3,20.8 47,20.8     "/>
				<polygon id="XMLID_95_" class="st0" points="137.9,13.9 151.8,13.9 151.8,10.4 137.9,10.4 137.9,4.4 154.1,4.4 154.1,0.8       130.6,0.8 130.6,24.4 154.2,24.4 154.2,20.8 137.9,20.8     "/>
				<polygon id="XMLID_94_" class="st0" points="17.4,18.7 9.9,0.8 0.5,0.8 0.5,24.4 4.9,24.4 4.9,5 12.1,24.4 19.9,24.4 27.1,5       27.1,24.4 34.5,24.4 34.5,0.8 24,0.8     "/>
				<polygon id="XMLID_93_" class="st0" points="165.4,0.8 158.2,0.8 158.2,24.4 180.9,24.4 180.9,20.9 165.4,20.8     "/>
				<polygon id="XMLID_92_" class="st0" points="191.5,0.7 184.3,0.7 184.3,24.4 207,24.4 207,20.9 191.5,20.8     "/>
			</g>
		</g>
	</g>
</g>
<g id="XMLID_71_">
	<path id="XMLID_83_" class="st0" d="M210.7,22.4c0-0.9,0.7-1.6,1.6-1.6s1.6,0.7,1.6,1.6c0,0.9-0.7,1.7-1.6,1.7   C211.4,24.1,210.7,23.4,210.7,22.4z M213.7,22.4c0-0.8-0.6-1.4-1.4-1.4c-0.8,0-1.3,0.6-1.3,1.4c0,0.8,0.6,1.4,1.4,1.4   C213.1,23.8,213.7,23.2,213.7,22.4z M211.7,21.5h0.7c0.4,0,0.7,0.2,0.7,0.6c0,0.3-0.1,0.4-0.4,0.5l0.4,0.7h-0.4l-0.4-0.7H212v0.7   h-0.4V21.5z M212.3,22.3c0.2,0,0.3-0.1,0.3-0.3c0-0.2-0.1-0.3-0.3-0.3H212v0.5H212.3z"/>
</g>
</svg>