<svg xml:space="preserve" style="enable-background:new 0 0 1094.1 184.91;" viewBox="0 0 1094.1 184.91" y="0px" x="0px" xmlns:xlink="http://www.w3.org/1999/xlink" xmlns="http://www.w3.org/2000/svg" id="Layer_1" version="1.1">
<g>
	<g>
		<g>
			<path d="M236.19,43.37L163.15,1.2c-2.77-1.6-7.31-1.6-10.09,0L80.01,43.37c-3.96,2.29-7.21,7.9-7.21,12.48v11.66v33.14v0
				c0,0,0,0,0,0c0,1.32,0.71,2.48,1.78,3.11l7.81,4.6c0.39,0.23,0.81,0.39,1.24,0.53c0.16,0.06,0.33,0.11,0.5,0.15
				c0.15,0.04,0.3,0.07,0.45,0.1c0.36,0.07,0.73,0.11,1.1,0.11c0,0,0,0,0,0c0.38,0,0.75-0.05,1.11-0.11c0.15-0.03,0.3-0.06,0.45-0.1
				c0.17-0.04,0.34-0.1,0.5-0.16c0.43-0.14,0.85-0.31,1.24-0.53l7.81-4.6c1.06-0.63,1.77-1.78,1.77-3.09v-0.04v-32.4
				c0-3.2,2.27-7.13,5.04-8.74l48.93-28.25c3.44-1.98,7.67-1.98,11.1,0l48.93,28.25c2.77,1.6,5.04,5.53,5.04,8.74v57.09
				c0,3.2-2.27,7.13-5.04,8.74l-36.44,21.04c-3.44,1.98-5.55,5.65-5.55,9.62v15.86c0,3.33,3.6,5.41,6.48,3.74l59.12-34.13
				c3.96-2.29,7.21-7.91,7.21-12.49V55.86C243.4,51.28,240.16,45.66,236.19,43.37z"></path>
			<path d="M7.21,141.53l73.05,42.17c2.77,1.6,7.31,1.6,10.09,0l73.05-42.17c3.96-2.29,7.21-7.9,7.21-12.48v-11.66V84.25v0
				c0,0,0,0,0,0c0-1.32-0.71-2.48-1.78-3.11l-7.81-4.6c-0.39-0.23-0.81-0.39-1.24-0.53c-0.16-0.06-0.33-0.11-0.5-0.15
				c-0.15-0.04-0.3-0.07-0.45-0.1c-0.36-0.07-0.73-0.11-1.1-0.11c0,0,0,0,0,0c-0.38,0-0.75,0.05-1.11,0.11
				c-0.15,0.03-0.3,0.06-0.45,0.1c-0.17,0.04-0.34,0.1-0.5,0.16c-0.43,0.14-0.85,0.31-1.24,0.53l-7.81,4.6
				c-1.06,0.63-1.77,1.78-1.77,3.09v0.04v32.4c0,3.2-2.27,7.13-5.04,8.74l-48.93,28.25c-3.44,1.98-7.67,1.98-11.1,0l-48.93-28.25
				c-2.77-1.6-5.04-5.53-5.04-8.74V59.58c0-3.2,2.27-7.13,5.04-8.74L67.25,29.8c3.44-1.98,5.55-5.65,5.55-9.62V4.33
				c0-3.33-3.6-5.41-6.48-3.74L7.21,34.72C3.24,37.01,0,42.62,0,47.2v81.85C0,133.63,3.24,139.24,7.21,141.53z"></path>
		</g>
		<g>
			<path d="M504.43,128.6l-34.28-41.59c-0.23-0.31-0.13-0.41-0.07-0.47l31.21-31.21c0.51-0.51,1.11-1.41,1.11-2.82
				c0-2.17-1.58-3.8-3.67-3.8h-15.03c-2.95,0-5.18,1.03-7.71,3.55L446.67,82V64.44v-9.88v-0.81c0-2.79-2.26-5.05-5.05-5.05h-0.81
				h-10.28h-0.81c-2.79,0-5.05,2.26-5.05,5.05v0.81v9.88v56.03v9.88v0.81c0,2.79,2.26,5.05,5.05,5.05h0.81h10.28h0.81
				c2.79,0,5.05-2.26,5.05-5.05v-0.81v-9.88v-11.44c0-0.85,0.13-1.12,0.43-1.42l6.04-6.04c0.1-0.1,0.17-0.14,0.17-0.16
				c0.02,0.02,0.08,0.08,0.18,0.24l25.31,30.96c2.24,2.65,4.1,3.59,7.11,3.59h15.03c2.33,0,4.83-1.35,4.83-4.32
				C505.75,130.91,505.53,129.97,504.43,128.6z"></path>
			<path d="M543.98,64.44V53.75c0-2.79-2.26-5.05-5.05-5.05h-0.81h-10.28h-0.82c-2.79,0-5.05,2.26-5.05,5.05v0.81v9.88v56.03v9.88
				v0.81c0,2.79,2.26,5.05,5.05,5.05h0.82h10.28h0.81c2.79,0,5.05-2.26,5.05-5.05v-10.69h0L543.98,64.44L543.98,64.44z"></path>
			<path d="M644.42,48.7h-0.81h-10.27h-0.82c-2.79,0-5.05,2.26-5.05,5.05v0.81c0,0,0,0.68,0,1.88c0,8.37,0,41.83,0,41.85
				l-34.28-45.7c-1.96-2.58-4.45-3.88-7.38-3.88h-4.33h-11.09h-0.81c-2.79,0-5.05,2.26-5.05,5.05v0.81v9.88v56.03v9.88v0.81
				c0,2.79,2.26,5.05,5.05,5.05h0.81h10.27h0.82c2.79,0,5.05-2.26,5.05-5.05v-0.81c0,0,0-4.12,0-9.88c0-13.42,0-35.77,0-35.78
				l35.96,47.91c1.84,2.36,4.44,3.61,7.51,3.61h2.53h11.09h0.81c2.79,0,5.05-2.26,5.05-5.05v-0.81v-9.88V64.44v-9.88v-0.81
				C649.46,50.96,647.2,48.7,644.42,48.7z"></path>
			<path d="M749.91,48.7h-0.81h-10.27H738c-2.79,0-5.05,2.26-5.05,5.05v10.69h0c0,12.9,0,33.84,0,33.86l-34.28-45.71
				c-1.96-2.58-4.45-3.88-7.38-3.88h-4.32h-11.09h-0.81c-2.79,0-5.05,2.26-5.05,5.05v0.81v9.88v56.03v9.88v0.81
				c0,2.79,2.26,5.05,5.05,5.05h0.81h10.28h0.82c2.79,0,5.05-2.26,5.05-5.05v-10.69h0c0-13.42,0-35.77,0-35.79l35.96,47.91
				c1.84,2.36,4.44,3.61,7.51,3.61H738h11.09h0.81c2.79,0,5.05-2.26,5.05-5.05v-0.81v-9.88V64.44v-9.88v-0.81
				C754.95,50.96,752.69,48.7,749.91,48.7z"></path>
			<path d="M848.93,48.7h-0.81h-12.65h-43.06h-11.09h-0.81c-2.79,0-5.05,2.26-5.05,5.05v0.81v9.88v56.03v9.88v0.81
				c0,2.79,2.26,5.05,5.05,5.05h0.81h11.09h43.06h12.65h0.81c2.79,0,5.05-2.26,5.05-5.05v-0.81v-8.99v-0.81
				c0-2.79-2.26-5.05-5.05-5.05h-0.8c0,0-0.01,0-0.01,0h-42.72h-2.72h-2.7c-1.39-0.01-2.51-1.13-2.51-2.52v-7.64
				c0-1.39,1.13-2.52,2.52-2.52h2.68h2.72h23.16c0.02,0,0.04-0.01,0.06-0.01h0.76c2.79,0,5.05-2.26,5.05-5.05v-0.81v-8.99v-0.82
				c0-2.79-2.26-5.05-5.05-5.05h-0.81h-12.65h-10.52h-2.72h-2.68c-1.39,0-2.52-1.13-2.52-2.52v-7.64c0-1.39,1.13-2.52,2.52-2.52
				h2.68h2.72h30.08h12.65h0.81c2.79,0,5.05-2.26,5.05-5.05v-0.81v-8.99v-0.81C853.97,50.96,851.71,48.7,848.93,48.7z"></path>
			<path d="M954.12,62.79c-0.01-0.17-0.01-0.34-0.03-0.5c0-0.04-0.01-0.08-0.02-0.12c-0.82-7.48-7.09-13.32-14.76-13.46
				c-0.09,0-0.18-0.01-0.28-0.01h0c0,0,0,0,0,0h-15.14h-33.85h-11.09h-0.81c-2.79,0-5.05,2.26-5.05,5.05v0.81v9.88v56.03v9.88v0.81
				c0,2.79,2.26,5.05,5.05,5.05h0.82h10.27h0.82c2.79,0,5.05-2.26,5.05-5.05v-10.69h0v-17.1c0-0.31,0.25-0.56,0.56-0.56h35.97
				c0.3,0,0.56,0.26,0.56,0.56v17.1v9.88v0.81c0,2.79,2.26,5.05,5.05,5.05h0.81h10.28h0.82c2.79,0,5.05-2.26,5.05-5.05v-0.81v-9.88
				v-7.3v-10.36c0,0,0,0,0,0c0-0.5-0.05-0.99-0.12-1.47c-0.02-0.11-0.03-0.22-0.05-0.32c-0.08-0.47-0.19-0.93-0.33-1.37
				c-0.02-0.06-0.05-0.12-0.07-0.18c-0.14-0.4-0.3-0.79-0.48-1.16c-0.04-0.09-0.08-0.17-0.12-0.26c-0.21-0.4-0.45-0.79-0.71-1.17
				c-0.05-0.07-0.11-0.15-0.16-0.22c-0.24-0.33-0.51-0.65-0.79-0.95c-0.05-0.05-0.09-0.1-0.14-0.15c-0.32-0.32-0.66-0.62-1.02-0.9
				c-0.08-0.06-0.16-0.12-0.25-0.19c-0.36-0.27-0.74-0.52-1.13-0.74c-0.01-0.01-0.03-0.02-0.04-0.02c-0.41-0.22-0.84-0.41-1.27-0.57
				c-0.05-0.02-0.1-0.05-0.16-0.07c-0.59-0.21-0.6-1.01-0.01-1.22c0.05-0.02,0.1-0.05,0.15-0.07c0.44-0.17,0.88-0.36,1.29-0.58
				c0.02-0.01,0.03-0.02,0.05-0.03c0.4-0.22,0.78-0.47,1.14-0.74c0.08-0.06,0.16-0.12,0.24-0.18c0.36-0.28,0.7-0.59,1.02-0.91
				c0.05-0.06,0.1-0.12,0.16-0.17c0.29-0.31,0.55-0.63,0.8-0.97c0.05-0.06,0.1-0.12,0.14-0.19c0.26-0.38,0.5-0.77,0.71-1.19
				c0.05-0.09,0.09-0.18,0.13-0.27c0.2-0.41,0.37-0.84,0.51-1.28c0.01-0.02,0.02-0.04,0.02-0.06c0.14-0.45,0.24-0.93,0.32-1.41
				c0.02-0.11,0.03-0.21,0.05-0.32c0.06-0.45,0.1-0.91,0.1-1.37V71.74v-1.37v-6.52v0C954.17,63.49,954.14,63.14,954.12,62.79z
				 M932.17,79.57c0,1.39-1.13,2.52-2.52,2.52h-1.78h-0.91h-26.68h-0.78h-1.91c-1.39,0-2.52-1.13-2.52-2.52v-7.64
				c0-1.39,1.13-2.52,2.52-2.52h1.91h0.78h26.68h0.91h1.78c1.39,0,2.52,1.13,2.52,2.52V79.57z"></path>
			<path d="M390.42,82.1h-0.04h-15.11h-20.52h-3.08h-2.68c-1.39,0-2.52-1.13-2.52-2.52v-7.64c0-1.39,1.13-2.52,2.52-2.52h2.68h3.08
				h2.4l0,0h33.82c0.01,0,0.01,0,0.02,0c3.18-0.01,6.12-1.71,7.71-4.46l6.37-11.04c0.2-0.34,0.31-0.69,0.38-1.04
				c0.43-2.06-1.11-4.17-3.39-4.17h-1.57h-0.81h-12.65h-32.29h-7.55h-7.56h-0.04c-8.36,0-15.14,6.78-15.14,15.14v0.04v23.79v0.1
				c0,8.3,6.75,15.04,15.04,15.04h0.1h15.14h20.52h3.08h2.68c1.39,0,2.52,1.13,2.52,2.52v7.64c0,1.39-1.12,2.51-2.51,2.52h-2.7
				h-3.08h-2.4h-33.82c-3.19,0-6.14,1.7-7.73,4.46L324.95,131c-0.2,0.34-0.31,0.69-0.38,1.04c-0.43,2.06,1.11,4.17,3.39,4.17h1.57
				h0.81h12.65h32.29h7.55h7.57h0.02c8.36,0,15.14-6.78,15.14-15.14v-0.02V97.27v-0.04C405.56,88.87,398.78,82.1,390.42,82.1z"></path>
			<path d="M1039.06,82.1h-0.04h-15.1h-20.52h-3.08h-2.68c-1.39,0-2.52-1.13-2.52-2.52v-7.64c0-1.39,1.13-2.52,2.52-2.52h2.68h3.08
				h2.4l0,0h33.82c0.01,0,0.01,0,0.02,0c3.18-0.01,6.12-1.71,7.71-4.46l6.37-11.04c0.2-0.34,0.31-0.69,0.38-1.04
				c0.43-2.06-1.11-4.17-3.39-4.17h-1.57h-0.81h-12.65h-32.29h-7.55h-7.56h-0.04c-8.36,0-15.14,6.78-15.14,15.14v0.04v23.79v0.1
				c0,8.3,6.75,15.04,15.04,15.04h0.1h15.14h20.52h3.08h2.68c1.39,0,2.52,1.13,2.52,2.52v7.64c0,1.39-1.12,2.51-2.51,2.52h-2.7
				h-3.08h-2.4h-33.82c-3.19,0-6.14,1.7-7.73,4.46L973.59,131c-0.2,0.34-0.31,0.69-0.38,1.04c-0.43,2.06,1.11,4.17,3.39,4.17h1.57
				h0.81h12.65h32.29h7.55h7.57h0.02c8.36,0,15.14-6.78,15.14-15.14v-0.02V97.27v-0.04C1054.2,88.87,1047.42,82.1,1039.06,82.1z"></path>
		</g>
	</g>
	<g>
		<path d="M1091.02,51.51c-2.04-2.07-4.54-3.11-7.46-3.11c-2.92,0-5.38,1.04-7.42,3.11c-2,2.08-3,4.58-3,7.54c0,2.92,1,5.42,3,7.5
			c2.04,2.04,4.5,3.08,7.42,3.08c2.92,0,5.42-1.04,7.46-3.08c2.04-2.07,3.07-4.57,3.07-7.5
			C1094.1,56.08,1093.06,53.59,1091.02,51.51z M1089.29,64.89c-1.54,1.58-3.46,2.39-5.73,2.39c-2.27,0-4.15-0.81-5.69-2.39
			c-1.54-1.58-2.31-3.54-2.31-5.84c0-2.35,0.77-4.31,2.31-5.89c1.54-1.62,3.42-2.42,5.69-2.42c2.27,0,4.19,0.81,5.73,2.42
			c1.58,1.58,2.34,3.54,2.34,5.89C1091.64,61.35,1090.87,63.31,1089.29,64.89z"></path>
		<path d="M1087.91,57.16c0-1.88-1.42-3.31-3.46-3.31h-4.35v9.65h2v-2.96h1.73l2.08,2.96h2.27l-2.35-3.23
			C1087.1,59.78,1087.91,58.54,1087.91,57.16z M1083.91,58.78h-1.81v-3.23h1.81c1.35,0,2.04,0.54,2.04,1.62
			C1085.95,58.24,1085.26,58.78,1083.91,58.78z"></path>
	</g>
</g>
</svg>
